<svg width="65" height="65" viewBox="0 0 65 65" fill="none" xmlns="http://www.w3.org/2000/svg">
<path d="M32.5312 0.687503C15.0937 0.687504 0.656246 15.125 0.656247 32.5625C0.656249 49.9688 15.125 64.4375 32.5625 64.4375C49.9688 64.4375 64.4062 49.9688 64.4062 32.5625C64.4062 15.125 49.9375 0.687501 32.5312 0.687503ZM29.2812 23.0313C31.3125 20.875 33.75 20.875 35.7812 23.0313L48.6562 36.7188C49.6562 37.7813 49.6562 39.25 48.75 40.1875C47.75 41.25 46.1875 41.2813 45.2187 40.25L32.5312 26.8125L19.8125 40.25C18.875 41.2813 17.3125 41.25 16.3125 40.1875C15.4062 39.25 15.4062 37.7813 16.4062 36.7188L29.2812 23.0313Z" fill="white"/>
</svg>
