<svg width="25" height="23" viewBox="0 0 25 23" fill="none" xmlns="http://www.w3.org/2000/svg">
<path d="M4.66797 22.3438H20.6758C23.125 22.3438 24.3438 21.125 24.3438 18.7109V4.40234C24.3438 1.98828 23.125 0.769531 20.6758 0.769531H4.66797C2.21875 0.769531 0.988281 1.97656 0.988281 4.40234V18.7109C0.988281 21.1367 2.21875 22.3438 4.66797 22.3438ZM4.49219 20.457C3.44922 20.457 2.875 19.9062 2.875 18.8164V7.76562C2.875 6.6875 3.44922 6.125 4.49219 6.125H20.8281C21.8711 6.125 22.457 6.6875 22.457 7.76562V18.8164C22.457 19.9062 21.8711 20.457 20.8281 20.457H4.49219ZM10.375 10.332H11.0664C11.4766 10.332 11.6172 10.2148 11.6172 9.80469V9.11328C11.6172 8.70312 11.4766 8.57422 11.0664 8.57422H10.375C9.96484 8.57422 9.82422 8.70312 9.82422 9.11328V9.80469C9.82422 10.2148 9.96484 10.332 10.375 10.332ZM14.2773 10.332H14.957C15.3672 10.332 15.5078 10.2148 15.5078 9.80469V9.11328C15.5078 8.70312 15.3672 8.57422 14.957 8.57422H14.2773C13.8555 8.57422 13.7266 8.70312 13.7266 9.11328V9.80469C13.7266 10.2148 13.8555 10.332 14.2773 10.332ZM18.168 10.332H18.8594C19.2695 10.332 19.3984 10.2148 19.3984 9.80469V9.11328C19.3984 8.70312 19.2695 8.57422 18.8594 8.57422H18.168C17.7578 8.57422 17.6172 8.70312 17.6172 9.11328V9.80469C17.6172 10.2148 17.7578 10.332 18.168 10.332ZM6.48438 14.1641H7.17578C7.58594 14.1641 7.71484 14.0469 7.71484 13.6367V12.9453C7.71484 12.5352 7.58594 12.418 7.17578 12.418H6.48438C6.07422 12.418 5.93359 12.5352 5.93359 12.9453V13.6367C5.93359 14.0469 6.07422 14.1641 6.48438 14.1641ZM10.375 14.1641H11.0664C11.4766 14.1641 11.6172 14.0469 11.6172 13.6367V12.9453C11.6172 12.5352 11.4766 12.418 11.0664 12.418H10.375C9.96484 12.418 9.82422 12.5352 9.82422 12.9453V13.6367C9.82422 14.0469 9.96484 14.1641 10.375 14.1641ZM14.2773 14.1641H14.957C15.3672 14.1641 15.5078 14.0469 15.5078 13.6367V12.9453C15.5078 12.5352 15.3672 12.418 14.957 12.418H14.2773C13.8555 12.418 13.7266 12.5352 13.7266 12.9453V13.6367C13.7266 14.0469 13.8555 14.1641 14.2773 14.1641ZM18.168 14.1641H18.8594C19.2695 14.1641 19.3984 14.0469 19.3984 13.6367V12.9453C19.3984 12.5352 19.2695 12.418 18.8594 12.418H18.168C17.7578 12.418 17.6172 12.5352 17.6172 12.9453V13.6367C17.6172 14.0469 17.7578 14.1641 18.168 14.1641ZM6.48438 18.0078H7.17578C7.58594 18.0078 7.71484 17.8789 7.71484 17.4688V16.7773C7.71484 16.3672 7.58594 16.25 7.17578 16.25H6.48438C6.07422 16.25 5.93359 16.3672 5.93359 16.7773V17.4688C5.93359 17.8789 6.07422 18.0078 6.48438 18.0078ZM10.375 18.0078H11.0664C11.4766 18.0078 11.6172 17.8789 11.6172 17.4688V16.7773C11.6172 16.3672 11.4766 16.25 11.0664 16.25H10.375C9.96484 16.25 9.82422 16.3672 9.82422 16.7773V17.4688C9.82422 17.8789 9.96484 18.0078 10.375 18.0078ZM14.2773 18.0078H14.957C15.3672 18.0078 15.5078 17.8789 15.5078 17.4688V16.7773C15.5078 16.3672 15.3672 16.25 14.957 16.25H14.2773C13.8555 16.25 13.7266 16.3672 13.7266 16.7773V17.4688C13.7266 17.8789 13.8555 18.0078 14.2773 18.0078Z" fill="black"/>
</svg>
