<svg width="33" height="21" viewBox="0 0 33 21" fill="none" xmlns="http://www.w3.org/2000/svg">
<path d="M16.4102 20.5117C25.7969 20.5117 32.2891 12.918 32.2891 10.5508C32.2891 8.17188 25.7852 0.589844 16.4102 0.589844C7.14062 0.589844 0.519531 8.17188 0.519531 10.5508C0.519531 12.918 7.14062 20.5117 16.4102 20.5117ZM16.4102 17.0781C12.7539 17.0781 9.85938 14.1133 9.84766 10.5508C9.83594 6.89453 12.7539 4.02344 16.4102 4.02344C20.0312 4.02344 22.9609 6.89453 22.9609 10.5508C22.9609 14.1133 20.0312 17.0781 16.4102 17.0781ZM16.4102 12.9062C17.7109 12.9062 18.7891 11.8398 18.7891 10.5508C18.7891 9.25 17.7109 8.18359 16.4102 8.18359C15.0977 8.18359 14.0195 9.25 14.0195 10.5508C14.0195 11.8398 15.0977 12.9062 16.4102 12.9062Z" fill="black"/>
</svg>
