<svg width="40" height="40" viewBox="0 0 40 40" fill="none" xmlns="http://www.w3.org/2000/svg">
<path d="M34.5817 0.930176H4.81425C2.24681 0.930176 0.163086 3.0139 0.163086 5.58134V35.3488C0.163086 37.9162 2.24681 39.9999 4.81425 39.9999H34.5817C37.1491 39.9999 39.2329 37.9162 39.2329 35.3488V5.58134C39.2329 3.0139 37.1491 0.930176 34.5817 0.930176ZM30.8608 14.8837H29.0003C27.0096 14.8837 26.2096 15.3488 26.2096 16.7441V19.5348H30.8608L29.9305 24.186H26.2096V38.1395H21.5584V24.186H17.8375V19.5348H21.5584V16.7441C21.5584 13.0232 23.4189 10.2325 27.1398 10.2325C29.8375 10.2325 30.8608 11.1627 30.8608 11.1627V14.8837Z" fill="white"/>
</svg>
