<svg width="251" height="44" viewBox="0 0 251 44" fill="none" xmlns="http://www.w3.org/2000/svg">
<path fill-rule="evenodd" clip-rule="evenodd" d="M18.4668 17.851C18.5886 18.1165 18.8276 18.6223 19.055 19.1326C19.2583 19.5867 19.2307 20.0269 19.0446 20.4959C18.6897 21.3925 18.6736 21.3775 17.7248 21.112C16.3694 20.7338 14.9979 20.4108 13.6253 20.1039C12.557 19.8637 11.4474 19.7775 10.4067 19.4568C8.84457 18.9752 7.30768 18.4326 5.66051 18.3108C5.278 18.2832 5.15853 18.1108 5.20792 17.7234C5.2309 17.5476 5.26997 17.3659 5.34463 17.2061C6.15903 15.4452 6.96768 13.6819 7.80964 11.9359C8.23005 11.0646 8.67689 10.183 8.7125 9.22091C8.73547 8.58527 8.94105 8.21743 9.4614 7.94156C9.67619 7.82662 9.86228 7.65536 10.0713 7.52662C10.9811 6.96224 11.8885 6.39324 12.8109 5.84955C13.1417 5.65414 13.3714 5.74957 13.4725 6.12429C13.5391 6.37257 13.5529 6.65876 13.5012 6.90934C13.4139 7.32774 13.5093 7.63695 13.8091 7.94041C14.1066 8.24041 14.4121 8.56227 14.6016 8.93239C15.2116 10.1267 15.81 11.3301 16.3384 12.5624C17.0506 14.2268 17.6938 15.9199 18.4668 17.851ZM15.5079 39.5032C14.5304 38.9963 13.6218 38.5768 12.8522 37.9159C12.5122 37.6251 12.1964 37.3043 11.8414 37.0353C9.93352 35.5893 8.62747 33.6364 7.31226 31.6904C7.23875 31.5812 7.18593 31.4536 7.13653 31.3283C6.91944 30.7812 6.9895 30.5513 7.51214 30.3007C7.95322 30.0892 8.42878 29.9467 8.87101 29.7363C9.79913 29.2949 10.7134 28.8271 11.6358 28.3754C13.1819 27.6179 14.7188 26.8443 16.2787 26.1178C16.9644 25.7971 17.6927 25.565 18.4071 25.311C18.7782 25.1788 19.0837 25.2523 19.3525 25.5937C19.6776 26.0121 20.0531 26.3938 20.4322 26.7685C20.6883 27.0214 20.7504 27.2569 20.601 27.6029C20.3541 28.1777 20.1002 28.7604 19.9636 29.3662C19.6798 30.6202 19.163 31.78 18.6346 32.9341C17.8684 34.5996 17.0563 36.2434 16.266 37.8974C16.0271 38.3963 15.7928 38.8986 15.5079 39.5032ZM30.2188 37.5078C30.2842 37.6503 30.3497 37.7928 30.4163 37.9354C30.4818 38.0768 30.5519 38.2181 30.6116 38.363C30.8586 38.963 30.8252 39.1699 30.2417 39.4435C29.4951 39.7941 28.7289 40.1377 27.9352 40.3481C25.9653 40.8688 23.9643 41.186 21.9151 41.2642C20.5046 41.3182 19.2158 41.0113 17.9546 40.4561C17.6226 40.3101 17.5697 40.1504 17.7191 39.8216C17.8569 39.517 18.0522 39.2239 18.1234 38.9044C18.4588 37.4009 19.1939 36.0583 19.8085 34.6698C20.4655 33.1812 21.3787 31.8019 21.6946 30.1685C21.7417 29.9271 21.7876 29.68 21.8829 29.4558C22.1288 28.8811 22.3493 28.2892 22.6709 27.7593C23.0557 27.126 23.8265 27.1317 24.217 27.7444C24.7109 28.5168 25.1589 29.3191 25.6368 30.1007C26.3145 31.2077 26.9278 32.364 27.7009 33.3985C28.6715 34.6963 29.4101 36.1204 30.2188 37.5078ZM16.8266 10.0003C16.2121 8.53355 15.5975 7.06797 14.9853 5.60127C14.9428 5.49782 14.9095 5.39091 14.8762 5.28402C14.7935 5.0116 14.8555 4.79093 15.1312 4.67369C15.7055 4.4277 16.2649 4.10239 16.8656 3.96791C18.0648 3.70123 19.287 3.53572 20.5011 3.34032C21.0663 3.24951 21.6084 3.35525 22.146 3.5518C22.432 3.6564 22.7514 3.6633 23.0512 3.72997C23.7691 3.88859 24.4985 4.01618 25.198 4.23457C25.6528 4.37596 25.7677 4.65874 25.6517 5.06449C25.4277 5.85417 25.2979 6.62546 25.3312 7.47835C25.376 8.65079 25.1566 9.84045 24.982 11.0117C24.8706 11.76 24.6099 12.483 24.4582 13.2267C24.2882 14.0578 24.2274 14.9141 24.0091 15.7291C23.7782 16.5877 23.4153 17.4108 23.112 18.2487C23.0293 18.4763 22.9145 18.6315 22.6296 18.6211C21.5809 18.5798 21.1156 18.2556 20.7251 17.259L20.6355 17.0062C20.2679 16.2395 19.9946 15.4061 19.511 14.7222C18.4577 13.2314 17.5571 11.6693 16.8266 10.0003ZM27.4804 19.7568L27.5091 19.8189C27.2047 19.9602 26.8991 20.0993 26.5947 20.2407C26.2341 20.4085 25.9274 20.3557 25.6011 20.1074C24.7936 19.4924 24.7293 19.3441 25.0406 18.3544C25.1153 18.12 25.2037 17.8889 25.2761 17.6545C25.4289 17.1636 25.6127 16.6797 25.7149 16.1797C25.8665 15.4371 25.9044 14.6682 26.087 13.936C26.5327 12.1509 26.7785 10.3439 26.898 8.51054C26.9417 7.82546 27.1243 7.14613 27.2874 6.4737C27.3758 6.10818 27.5998 6.04726 27.9605 6.22198C28.3223 6.3967 28.6738 6.59556 29.0414 6.75879C29.9017 7.14155 30.7598 7.52086 31.341 8.31743L31.6063 8.51861C31.9394 8.84275 32.3242 9.1324 32.5838 9.50712C33.1926 10.3899 33.6831 11.3555 34.3263 12.2095C35.0626 13.1865 35.3693 14.3245 35.7645 15.4371C35.8552 15.6923 35.7932 15.8636 35.5462 15.9843C34.3826 16.5544 33.2248 17.1349 32.0589 17.7016C31.7786 17.8383 31.4719 17.92 31.1882 18.0487C29.95 18.6131 28.7163 19.1866 27.4804 19.7568ZM25.5587 26.7673C25.5644 26.6661 25.5265 26.4156 25.6035 26.2064C25.7413 25.8317 25.9423 25.4788 26.1295 25.1236C26.3168 24.7661 26.5982 24.6385 27.0163 24.6902C28.4602 24.8718 29.8661 25.2248 31.2663 25.6075C32.0405 25.819 32.7906 26.1478 33.5751 26.2834C34.6526 26.4685 35.6278 26.8903 36.6007 27.3397C37.1233 27.5822 37.1486 27.6949 36.9407 28.2271C36.7856 28.6214 36.5386 29.0122 36.5099 29.4168C36.441 30.3559 35.9827 31.1065 35.5416 31.887C35.1235 32.6226 34.7594 33.3893 34.3665 34.1399C33.9117 35.0089 33.4936 35.9008 32.9813 36.7353C32.5517 37.4365 32.2565 37.3928 31.836 36.6836L31.6787 36.3882C31.2468 35.6836 30.8815 34.9261 30.3681 34.287C28.5521 32.0295 27.2817 29.4272 25.7045 27.0202C25.6804 26.9834 25.6597 26.9432 25.5587 26.7673ZM5.52727 28.1995C5.42504 27.9271 5.32971 27.7443 5.28606 27.5489C4.91964 25.9213 4.42342 24.3132 4.59342 22.6052C4.66579 21.8718 4.63475 21.1292 4.69448 20.3936C4.73124 19.9396 4.91044 19.874 5.3297 20.0074C5.66396 20.1131 6.01545 20.2407 6.35546 20.2304C7.90614 20.1832 9.34655 20.7396 10.8352 21.0212C11.9046 21.2223 12.9418 21.5948 13.9917 21.904C15.362 22.3063 16.7335 22.7132 18.097 23.1419C18.2819 23.2005 18.5301 23.3787 18.5599 23.5362C18.6162 23.8374 18.3106 23.8994 18.0763 23.9822C17.7191 24.1086 17.3572 24.2316 17.0161 24.3949C15.5447 25.1006 14.0836 25.8271 12.6122 26.5328C12.2308 26.7156 11.823 26.8455 11.4313 27.0087C10.2597 27.4961 9.08578 27.98 7.92104 28.4835C7.53854 28.649 7.16639 28.8512 6.81375 29.0754C6.46686 29.2949 6.26356 29.3076 6.01315 28.9777C5.81099 28.7122 5.65706 28.411 5.52727 28.1995ZM34.0472 18.0096L34.061 18.0407C34.6503 17.7682 35.2326 17.4809 35.8299 17.2303C36.3537 17.0107 36.5283 17.0878 36.8097 17.5786C36.8649 17.6751 36.9074 17.7797 36.9476 17.8843C37.2853 18.7453 37.476 19.6373 37.5162 20.5626C37.5667 21.6787 37.6207 22.7948 37.6712 23.9109L37.6701 24.1787C37.6322 24.8707 37.4553 24.9868 36.7879 24.8765C35.3578 24.6397 33.9243 24.4213 32.4896 24.2132C30.8092 23.9695 29.1241 23.7569 27.4436 23.5074C26.7624 23.4063 26.6728 23.2592 26.7016 22.5649C26.7062 22.4534 26.7406 22.3385 26.7234 22.2316C26.6372 21.7063 26.9359 21.4453 27.3643 21.2683C27.7353 21.1143 28.119 20.9867 28.4785 20.8085C30.3382 19.8832 32.191 18.9441 34.0472 18.0096ZM1.21522 25.7719C1.25427 26.4604 1.3611 27.1478 1.48286 27.8271C1.59313 28.4432 1.74704 29.0524 1.91819 29.6547C2.01468 29.9927 2.17894 30.3122 2.32482 30.6352C2.38915 30.7766 2.49595 30.8985 2.56372 31.0399C3.45737 32.9089 4.59687 34.6273 5.99938 36.1377C7.19742 37.4297 8.47929 38.6665 9.85193 39.7688C11.5818 41.1585 13.6655 41.8953 15.7675 42.5654C18.2601 43.3585 20.8216 43.7735 23.4141 43.9631C25.2037 44.093 26.9784 43.8919 28.6704 43.1666C29.6754 42.7367 30.7437 42.4562 31.7603 42.0481C32.9445 41.5757 34.0955 41.0423 34.9822 40.0665C35.7185 39.2549 36.5088 38.4917 37.2485 37.6825C37.5311 37.3722 37.7734 37.0112 37.9756 36.6411C38.5442 35.602 39.1519 34.5767 39.6067 33.4881C40.0535 32.4203 40.3625 31.2892 40.675 30.1708C41.0609 28.7846 41.2079 27.3604 41.2792 25.9213C41.3619 24.2638 41.3216 22.6155 41.1045 20.9706C41.0678 20.6855 40.9701 20.4097 40.9104 20.1269C40.8001 19.6051 40.6979 19.0809 40.5888 18.5568C40.5578 18.405 40.5337 18.251 40.49 18.1027C40.2396 17.2441 39.9433 16.3958 39.7422 15.5256C39.5068 14.5141 39.1415 13.5486 38.6373 12.6624C37.731 11.0681 36.7592 9.50828 35.7495 7.97836C35.4268 7.48869 34.9041 7.1289 34.4619 6.72199C33.5395 5.87254 32.6171 5.02425 31.6821 4.1909C31.1974 3.75871 30.6909 3.35294 30.1843 2.94603C26.5522 1.41726 26.7533 1.26094 25.3416 0.905762C23.931 0.549432 23.2866 0.243684 22.1954 0C21.3075 0.103451 20.415 0.185057 19.5225 0.217241C16.8817 0.311496 14.3214 0.764385 11.8989 1.85292C11.4934 2.03453 11.1074 2.27361 10.7444 2.53109C9.6337 3.32191 8.48619 4.0748 7.44666 4.95298C5.5755 6.53463 4.34644 8.60479 3.4815 10.8589C2.97265 12.1876 2.72225 13.6153 2.34894 14.9969C2.27083 15.2877 2.16399 15.5705 2.0698 15.8578C1.61494 17.9154 1.17271 20.0442 1.13021 21.1315C1.08771 22.2178 1.12219 22.2511 1.00388 23.4581C0.913133 24.3799 1.09346 25.1305 1.21522 25.7719Z" fill="white"/>
<path d="M57.3357 20V17.4L63.2117 12.174C64.1997 11.3073 64.9797 10.5447 65.5517 9.886C66.1237 9.22733 66.4097 8.47333 66.4097 7.624C66.4097 6.93067 66.1584 6.30667 65.6557 5.752C65.1704 5.19733 64.4337 4.92 63.4457 4.92C62.4404 4.92 61.6777 5.258 61.1577 5.934C60.6377 6.61 60.3691 7.58067 60.3517 8.846H57.2317C57.1624 7.77133 57.2751 6.818 57.5697 5.986C57.8817 5.13667 58.3237 4.426 58.8957 3.854C59.4851 3.26467 60.1871 2.82267 61.0017 2.528C61.8164 2.216 62.7091 2.06 63.6797 2.06C64.6504 2.06 65.4997 2.20733 66.2277 2.502C66.9731 2.77933 67.5884 3.16067 68.0737 3.646C68.5764 4.114 68.9491 4.66867 69.1917 5.31C69.4517 5.934 69.5817 6.584 69.5817 7.26C69.5817 8.716 69.2177 9.964 68.4897 11.004C67.7617 12.044 66.8604 12.9973 65.7857 13.864L62.0417 16.88H69.6597V20H57.3357ZM74.1703 20V2.32H77.5503L83.8943 13.838V2.32H86.8843V20H83.5043L77.1603 8.482V20H74.1703ZM91.3598 20V2.32H96.6378C97.9551 2.32 99.1511 2.528 100.226 2.944C101.318 3.34267 102.245 3.92333 103.008 4.686C103.788 5.44867 104.386 6.376 104.802 7.468C105.235 8.56 105.452 9.79067 105.452 11.16C105.452 12.512 105.235 13.7427 104.802 14.852C104.386 15.944 103.788 16.8713 103.008 17.634C102.245 18.3967 101.318 18.986 100.226 19.402C99.1511 19.8007 97.9551 20 96.6378 20H91.3598ZM96.4558 17.062C98.2931 17.062 99.7144 16.568 100.72 15.58C101.725 14.592 102.228 13.1187 102.228 11.16C102.228 9.20133 101.725 7.728 100.72 6.74C99.7144 5.752 98.2931 5.258 96.4558 5.258H94.4538V17.062H96.4558ZM57.3617 42V24.32H64.6937C66.6004 24.32 68.0217 24.7707 68.9577 25.672C69.8937 26.5733 70.3617 27.804 70.3617 29.364C70.3617 30.352 70.0671 31.184 69.4777 31.86C68.8884 32.536 68.1604 33.0733 67.2937 33.472C67.8311 33.732 68.2297 34.096 68.4897 34.564C68.7671 35.0147 68.9491 35.5 69.0357 36.02L69.4257 38.23C69.5471 38.9753 69.8071 39.686 70.2057 40.362C70.6044 41.038 71.1157 41.584 71.7397 42H67.6577C67.1897 41.792 66.8517 41.4193 66.6437 40.882C66.4357 40.3273 66.2711 39.6427 66.1497 38.828L65.8637 36.826C65.7597 36.1327 65.5344 35.5607 65.1877 35.11C64.8584 34.642 64.3037 34.408 63.5237 34.408H60.4557V42H57.3617ZM64.6937 27.258H60.4557V31.47H64.6157C65.4997 31.47 66.1411 31.288 66.5397 30.924C66.9384 30.56 67.1377 30.04 67.1377 29.364C67.1377 28.688 66.9211 28.168 66.4877 27.804C66.0544 27.44 65.4564 27.258 64.6937 27.258ZM80.5023 42.26C79.4103 42.26 78.3877 42.052 77.4343 41.636C76.481 41.2027 75.649 40.596 74.9383 39.816C74.2277 39.0187 73.6643 38.0567 73.2483 36.93C72.8497 35.8033 72.6503 34.5467 72.6503 33.16C72.6503 31.7733 72.8497 30.5167 73.2483 29.39C73.6643 28.2633 74.219 27.31 74.9123 26.53C75.623 25.7327 76.455 25.126 77.4083 24.71C78.379 24.2767 79.4103 24.06 80.5023 24.06C81.5943 24.06 82.6257 24.2767 83.5963 24.71C84.567 25.126 85.4077 25.7327 86.1183 26.53C86.829 27.31 87.3837 28.2633 87.7823 29.39C88.1983 30.5167 88.4063 31.7733 88.4063 33.16C88.4063 34.5467 88.1983 35.8033 87.7823 36.93C87.3663 38.0567 86.803 39.0187 86.0923 39.816C85.3817 40.596 84.541 41.2027 83.5703 41.636C82.617 42.052 81.5943 42.26 80.5023 42.26ZM80.5023 39.166C81.8543 39.166 82.9637 38.6373 83.8303 37.58C84.7143 36.5053 85.1563 35.032 85.1563 33.16C85.1563 31.288 84.7143 29.8233 83.8303 28.766C82.9637 27.6913 81.8543 27.154 80.5023 27.154C79.1503 27.154 78.041 27.6913 77.1743 28.766C76.3077 29.8233 75.8743 31.288 75.8743 33.16C75.8743 35.032 76.3077 36.5053 77.1743 37.58C78.041 38.6373 79.1503 39.166 80.5023 39.166ZM91.9184 42V24.32H97.1184L100.654 35.734L104.372 24.32H109.572V42H106.608V27.232L101.902 42H99.3804L94.8824 27.388V42H91.9184ZM124.616 42L122.718 37.138H116.894L114.996 42H111.72L118.48 24.32H121.132L127.892 42H124.616ZM117.986 34.278H121.626L119.806 29.624L117.986 34.278ZM135.514 42V24.32H142.716C143.756 24.32 144.64 24.4413 145.368 24.684C146.113 24.9267 146.711 25.2647 147.162 25.698C147.63 26.114 147.968 26.608 148.176 27.18C148.384 27.7347 148.488 28.324 148.488 28.948C148.488 29.8493 148.297 30.6207 147.916 31.262C147.535 31.886 147.067 32.432 146.512 32.9C147.448 33.3853 148.072 34.0007 148.384 34.746C148.713 35.474 148.878 36.1673 148.878 36.826C148.878 38.334 148.375 39.5733 147.37 40.544C146.382 41.5147 144.874 42 142.846 42H135.514ZM142.742 27.258H138.608V31.548H142.664C143.6 31.548 144.285 31.3747 144.718 31.028C145.151 30.6813 145.368 30.1267 145.368 29.364C145.368 28.6187 145.134 28.0813 144.666 27.752C144.215 27.4227 143.574 27.258 142.742 27.258ZM142.664 34.486H138.608V39.062H143.262C144.059 39.062 144.675 38.8713 145.108 38.49C145.559 38.1087 145.784 37.554 145.784 36.826C145.784 36.046 145.507 35.4653 144.952 35.084C144.397 34.6853 143.635 34.486 142.664 34.486ZM152.145 42V24.32H155.239V42H152.145ZM159.711 42V24.32H170.527V27.258H162.805V30.872H170.111V33.81H162.805V39.062H170.527V42H159.711ZM174.209 42V24.32H177.589L183.933 35.838V24.32H186.923V42H183.543L177.199 30.482V42H174.209ZM191.399 42V24.32H194.779L201.123 35.838V24.32H204.113V42H200.733L194.389 30.482V42H191.399ZM219.17 42L217.272 37.138H211.448L209.55 42H206.274L213.034 24.32H215.686L222.446 42H219.17ZM212.54 34.278H216.18L214.36 29.624L212.54 34.278ZM224.61 42V24.32H227.704V39.062H234.724V42H224.61ZM238.245 42V24.32H249.061V27.258H241.339V30.872H248.645V33.81H241.339V39.062H249.061V42H238.245Z" fill="white"/>
</svg>
