<svg width="42" height="44" viewBox="0 0 42 44" fill="none" xmlns="http://www.w3.org/2000/svg">
    <path fill-rule="evenodd" clip-rule="evenodd" d="M18.4668 17.851C18.5885 18.1165 18.8275 18.6223 19.0549 19.1326C19.2582 19.5867 19.2307 20.0269 19.0446 20.4959C18.6896 21.3925 18.6735 21.3775 17.7248 21.112C16.3693 20.7338 14.9979 20.4108 13.6252 20.1039C12.557 19.8637 11.4474 19.7775 10.4067 19.4568C8.8445 18.9752 7.30762 18.4326 5.66045 18.3108C5.27794 18.2832 5.15847 18.1108 5.20786 17.7234C5.23083 17.5476 5.26991 17.3659 5.34457 17.2061C6.15897 15.4452 6.96762 13.6819 7.80958 11.9359C8.22999 11.0646 8.67683 10.183 8.71244 9.22091C8.73541 8.58527 8.94099 8.21743 9.46133 7.94156C9.67613 7.82662 9.86222 7.65536 10.0713 7.52662C10.981 6.96224 11.8885 6.39324 12.8108 5.84955C13.1416 5.65414 13.3714 5.74957 13.4724 6.12429C13.5391 6.37257 13.5528 6.65876 13.5012 6.90934C13.4139 7.32774 13.5092 7.63695 13.809 7.94041C14.1065 8.24041 14.412 8.56227 14.6016 8.93239C15.2115 10.1267 15.8099 11.3301 16.3383 12.5624C17.0505 14.2268 17.6937 15.9199 18.4668 17.851ZM15.5079 39.5032C14.5304 38.9963 13.6218 38.5768 12.8522 37.9159C12.5122 37.6251 12.1963 37.3043 11.8414 37.0353C9.93346 35.5893 8.62741 33.6364 7.3122 31.6904C7.23868 31.5812 7.18586 31.4536 7.13647 31.3283C6.91938 30.7812 6.98944 30.5513 7.51208 30.3007C7.95316 30.0892 8.42872 29.9467 8.87095 29.7363C9.79906 29.2949 10.7134 28.8271 11.6357 28.3754C13.1818 27.6179 14.7187 26.8443 16.2786 26.1178C16.9643 25.7971 17.6926 25.565 18.4071 25.311C18.7781 25.1788 19.0836 25.2523 19.3524 25.5937C19.6775 26.0121 20.0531 26.3938 20.4321 26.7685C20.6883 27.0214 20.7503 27.2569 20.601 27.6029C20.354 28.1777 20.1002 28.7604 19.9635 29.3662C19.6798 30.6202 19.1629 31.78 18.6345 32.9341C17.8684 34.5996 17.0563 36.2434 16.266 37.8974C16.0271 38.3963 15.7927 38.8986 15.5079 39.5032ZM30.2187 37.5078C30.2842 37.6503 30.3496 37.7928 30.4163 37.9354C30.4817 38.0768 30.5518 38.2181 30.6115 38.363C30.8585 38.963 30.8252 39.1699 30.2417 39.4435C29.495 39.7941 28.7289 40.1377 27.9352 40.3481C25.9652 40.8688 23.9643 41.186 21.9151 41.2642C20.5045 41.3182 19.2157 41.0113 17.9545 40.4561C17.6225 40.3101 17.5697 40.1504 17.719 39.8216C17.8568 39.517 18.0521 39.2239 18.1234 38.9044C18.4588 37.4009 19.1939 36.0583 19.8084 34.6698C20.4654 33.1812 21.3787 31.8019 21.6945 30.1685C21.7416 29.9271 21.7875 29.68 21.8829 29.4558C22.1287 28.8811 22.3492 28.2892 22.6709 27.7593C23.0557 27.126 23.8264 27.1317 24.217 27.7444C24.7109 28.5168 25.1589 29.3191 25.6367 30.1007C26.3144 31.2077 26.9278 32.364 27.7008 33.3985C28.6714 34.6963 29.41 36.1204 30.2187 37.5078ZM16.8265 10.0003C16.212 8.53355 15.5975 7.06797 14.9852 5.60127C14.9427 5.49782 14.9094 5.39091 14.8761 5.28402C14.7934 5.0116 14.8554 4.79093 15.1311 4.67369C15.7054 4.4277 16.2648 4.10239 16.8656 3.96791C18.0648 3.70123 19.287 3.53572 20.5011 3.34032C21.0662 3.24951 21.6084 3.35525 22.1459 3.5518C22.4319 3.6564 22.7513 3.6633 23.0511 3.72997C23.769 3.88859 24.4984 4.01618 25.1979 4.23457C25.6528 4.37596 25.7676 4.65874 25.6516 5.06449C25.4276 5.85417 25.2978 6.62546 25.3312 7.47835C25.376 8.65079 25.1566 9.84045 24.982 11.0117C24.8706 11.76 24.6098 12.483 24.4582 13.2267C24.2882 14.0578 24.2273 14.9141 24.0091 15.7291C23.7782 16.5877 23.4152 17.4108 23.112 18.2487C23.0292 18.4763 22.9144 18.6315 22.6295 18.6211C21.5808 18.5798 21.1156 18.2556 20.725 17.259L20.6354 17.0062C20.2679 16.2395 19.9945 15.4061 19.5109 14.7222C18.4576 13.2314 17.5571 11.6693 16.8265 10.0003ZM27.4803 19.7568L27.509 19.8189C27.2046 19.9602 26.8991 20.0993 26.5947 20.2407C26.234 20.4085 25.9273 20.3557 25.6011 20.1074C24.7936 19.4924 24.7293 19.3441 25.0406 18.3544C25.1152 18.12 25.2037 17.8889 25.276 17.6545C25.4288 17.1636 25.6126 16.6797 25.7148 16.1797C25.8665 15.4371 25.9043 14.6682 26.087 13.936C26.5326 12.1509 26.7785 10.3439 26.8979 8.51054C26.9416 7.82546 27.1242 7.14613 27.2873 6.4737C27.3758 6.10818 27.5998 6.04726 27.9604 6.22198C28.3223 6.3967 28.6738 6.59556 29.0413 6.75879C29.9017 7.14155 30.7597 7.52086 31.3409 8.31743L31.6063 8.51861C31.9394 8.84275 32.3242 9.1324 32.5838 9.50712C33.1926 10.3899 33.683 11.3555 34.3263 12.2095C35.0626 13.1865 35.3693 14.3245 35.7644 15.4371C35.8551 15.6923 35.7931 15.8636 35.5462 15.9843C34.3826 16.5544 33.2247 17.1349 32.0588 17.7016C31.7786 17.8383 31.4719 17.92 31.1882 18.0487C29.9499 18.6131 28.7162 19.1866 27.4803 19.7568ZM25.5586 26.7673C25.5643 26.6661 25.5264 26.4156 25.6034 26.2064C25.7412 25.8317 25.9423 25.4788 26.1295 25.1236C26.3167 24.7661 26.5981 24.6385 27.0163 24.6902C28.4601 24.8718 29.866 25.2248 31.2663 25.6075C32.0404 25.819 32.7905 26.1478 33.5751 26.2834C34.6525 26.4685 35.6277 26.8903 36.6006 27.3397C37.1233 27.5822 37.1485 27.6949 36.9406 28.2271C36.7855 28.6214 36.5386 29.0122 36.5099 29.4168C36.4409 30.3559 35.9826 31.1065 35.5416 31.887C35.1235 32.6226 34.7593 33.3893 34.3665 34.1399C33.9116 35.0089 33.4935 35.9008 32.9812 36.7353C32.5516 37.4365 32.2564 37.3928 31.836 36.6836L31.6786 36.3882C31.2467 35.6836 30.8815 34.9261 30.368 34.287C28.552 32.0295 27.2816 29.4272 25.7045 27.0202C25.6804 26.9834 25.6597 26.9432 25.5586 26.7673ZM5.5272 28.1995C5.42497 27.9271 5.32965 27.7443 5.286 27.5489C4.91958 25.9213 4.42336 24.3132 4.59336 22.6052C4.66573 21.8718 4.63469 21.1292 4.69442 20.3936C4.73118 19.9396 4.91038 19.874 5.32964 20.0074C5.6639 20.1131 6.01539 20.2407 6.35539 20.2304C7.90608 20.1832 9.34649 20.7396 10.8351 21.0212C11.9045 21.2223 12.9418 21.5948 13.9916 21.904C15.362 22.3063 16.7335 22.7132 18.0969 23.1419C18.2819 23.2005 18.53 23.3787 18.5599 23.5362C18.6161 23.8374 18.3106 23.8994 18.0762 23.9822C17.719 24.1086 17.3572 24.2316 17.016 24.3949C15.5446 25.1006 14.0835 25.8271 12.6121 26.5328C12.2308 26.7156 11.823 26.8455 11.4313 27.0087C10.2596 27.4961 9.08572 27.98 7.92098 28.4835C7.53848 28.649 7.16633 28.8512 6.81369 29.0754C6.4668 29.2949 6.2635 29.3076 6.01309 28.9777C5.81093 28.7122 5.657 28.411 5.5272 28.1995ZM34.0472 18.0096L34.0609 18.0407C34.6502 17.7682 35.2326 17.4809 35.8299 17.2303C36.3537 17.0107 36.5283 17.0878 36.8097 17.5786C36.8648 17.6751 36.9073 17.7797 36.9475 17.8843C37.2852 18.7453 37.4759 19.6373 37.5161 20.5626C37.5666 21.6787 37.6206 22.7948 37.6712 23.9109L37.67 24.1787C37.6321 24.8707 37.4552 24.9868 36.7878 24.8765C35.3578 24.6397 33.9242 24.4213 32.4896 24.2132C30.8091 23.9695 29.124 23.7569 27.4435 23.5074C26.7624 23.4063 26.6728 23.2592 26.7015 22.5649C26.7061 22.4534 26.7406 22.3385 26.7233 22.2316C26.6372 21.7063 26.9358 21.4453 27.3643 21.2683C27.7353 21.1143 28.1189 20.9867 28.4785 20.8085C30.3381 19.8832 32.1909 18.9441 34.0472 18.0096ZM1.21516 25.7719C1.25421 26.4604 1.36104 27.1478 1.4828 27.8271C1.59307 28.4432 1.74698 29.0524 1.91813 29.6547C2.01462 29.9927 2.17888 30.3122 2.32476 30.6352C2.38909 30.7766 2.49589 30.8985 2.56366 31.0399C3.45731 32.9089 4.59681 34.6273 5.99931 36.1377C7.19736 37.4297 8.47923 38.6665 9.85187 39.7688C11.5817 41.1585 13.6654 41.8953 15.7675 42.5654C18.2601 43.3585 20.8215 43.7735 23.414 43.9631C25.2037 44.093 26.9783 43.8919 28.6703 43.1666C29.6754 42.7367 30.7436 42.4562 31.7602 42.0481C32.9445 41.5757 34.0954 41.0423 34.9822 40.0665C35.7185 39.2549 36.5087 38.4917 37.2485 37.6825C37.531 37.3722 37.7734 37.0112 37.9756 36.6411C38.5441 35.602 39.1518 34.5767 39.6067 33.4881C40.0535 32.4203 40.3625 31.2892 40.6749 30.1708C41.0608 28.7846 41.2079 27.3604 41.2791 25.9213C41.3618 24.2638 41.3216 22.6155 41.1045 20.9706C41.0677 20.6855 40.9701 20.4097 40.9104 20.1269C40.8001 19.6051 40.6979 19.0809 40.5887 18.5568C40.5577 18.405 40.5336 18.251 40.49 18.1027C40.2395 17.2441 39.9432 16.3958 39.7422 15.5256C39.5067 14.5141 39.1415 13.5486 38.6372 12.6624C37.7309 11.0681 36.7591 9.50828 35.7495 7.97836C35.4267 7.48869 34.9041 7.1289 34.4618 6.72199C33.5395 5.87254 32.6171 5.02425 31.6821 4.1909C31.1973 3.75871 30.6908 3.35294 30.1842 2.94603C26.5522 1.41726 26.7532 1.26094 25.3415 0.905762C23.931 0.549432 23.2865 0.243684 22.1953 0C21.3074 0.103451 20.4149 0.185057 19.5224 0.217241C16.8816 0.311496 14.3213 0.764385 11.8988 1.85292C11.4933 2.03453 11.1074 2.27361 10.7444 2.53109C9.63364 3.32191 8.48613 4.0748 7.4466 4.95298C5.57544 6.53463 4.34638 8.60479 3.48144 10.8589C2.97259 12.1876 2.72219 13.6153 2.34888 14.9969C2.27077 15.2877 2.16393 15.5705 2.06974 15.8578C1.61488 17.9154 1.17265 20.0442 1.13015 21.1315C1.08765 22.2178 1.12213 22.2511 1.00382 23.4581C0.913072 24.3799 1.0934 25.1305 1.21516 25.7719Z" fill="white"/>
</svg>
