<svg width="36" height="19" viewBox="0 0 36 19" fill="none" xmlns="http://www.w3.org/2000/svg">
    <path d="M1.59649 3.21028H34.386C35.2807 3.21028 36 2.4775 36 1.60514C36 0.715335 35.2807 0 34.386 0H1.59649C0.701754 0 0 0.732782 0 1.60514C0 2.4775 0.701754 3.21028 1.59649 3.21028ZM1.59649 11.1139H34.386C35.2807 11.1139 36 10.3811 36 9.50872C36 8.60147 35.2807 7.88613 34.386 7.88613H1.59649C0.701754 7.88613 0 8.60147 0 9.50872C0 10.3636 0.701754 11.1139 1.59649 11.1139ZM1.59649 19H34.386C35.2807 19 36 18.2847 36 17.3774C36 16.5051 35.2807 15.7723 34.386 15.7723H1.59649C0.701754 15.7723 0 16.5051 0 17.3774C0 18.2672 0.701754 19 1.59649 19Z" fill="white"/>
</svg>
