<svg width="22" height="24" viewBox="0 0 22 24" fill="none" xmlns="http://www.w3.org/2000/svg">
<path d="M1.55859 23.0469C2.05078 23.0469 2.44922 22.6602 2.44922 22.168V15.6523C2.74219 15.5234 3.84375 15.1016 5.56641 15.1016C9.90234 15.1016 12.6211 17.2227 16.7461 17.2227C18.5742 17.2227 19.2539 17.0234 20.1445 16.625C20.9531 16.2617 21.4805 15.6523 21.4805 14.5742V2.67969C21.4805 2.04688 20.9414 1.68359 20.2617 1.68359C19.6875 1.68359 18.6094 2.17578 16.5938 2.17578C12.4688 2.17578 9.76172 0.0546875 5.41406 0.0546875C3.58594 0.0546875 2.89453 0.253906 2.00391 0.652344C1.19531 1.01562 0.667969 1.625 0.667969 2.69141V22.168C0.667969 22.6484 1.07812 23.0469 1.55859 23.0469Z" fill="black"/>
</svg>
