<svg style="transform: rotate(180deg)" width="30" height="25" viewBox="0 0 30 25" fill="none" xmlns="http://www.w3.org/2000/svg">
    <path d="M0 12.0435C0 12.4407 0.172718 12.8061 0.48675 13.108L10.9126 23.6421C11.2267 23.944 11.5564 24.087 11.9332 24.087C12.7026 24.087 13.315 23.515 13.315 22.7205C13.315 22.3392 13.1737 21.9579 12.9224 21.7196L9.40527 18.097L4.11382 13.2192L7.91361 13.4576H27.7762C28.5926 13.4576 29.1579 12.8697 29.1579 12.0435C29.1579 11.2173 28.5926 10.6294 27.7762 10.6294H7.91361L4.12952 10.8677L9.40527 5.98996L12.9224 2.36739C13.1737 2.11317 13.315 1.74773 13.315 1.36641C13.315 0.571986 12.7026 0 11.9332 0C11.5564 0 11.2267 0.127108 10.8812 0.476655L0.48675 10.9789C0.172718 11.2808 0 11.6463 0 12.0435Z" fill="white"/>
</svg>
