<svg width="40" height="40" viewBox="0 0 40 40" fill="none" xmlns="http://www.w3.org/2000/svg">
<path d="M35.5556 0H4.44444C1.98889 0 0 1.98889 0 4.44444V35.5556C0 38.0111 1.98889 40 4.44444 40H35.5556C38.0111 40 40 38.0111 40 35.5556V4.44444C40 1.98889 38.0111 0 35.5556 0ZM31.2222 14.4756C31.2222 14.6667 31.2222 14.8556 31.2222 15.2378C31.2222 22.4756 25.6978 30.8578 15.6022 30.8578C12.5556 30.8578 9.69778 29.9044 7.22222 28.3822C7.60222 28.3822 8.17556 28.3822 8.55556 28.3822C11.0311 28.3822 13.5089 27.4289 15.4133 26.0956C12.9378 26.0956 11.0333 24.3822 10.2711 22.2867C10.6511 22.2867 11.0333 22.4778 11.2244 22.4778C11.7956 22.4778 12.1778 22.4778 12.7489 22.2867C10.2733 21.7156 8.36889 19.62 8.36889 16.9533C9.13111 17.3333 9.89333 17.5244 10.8444 17.7156C9.32 16.3822 8.36889 14.8578 8.36889 12.9533C8.36889 12 8.56 11.0489 9.13111 10.2867C11.7978 13.5244 15.7978 15.8111 20.3689 16C20.3689 15.62 20.1778 15.2378 20.1778 14.6667C20.1778 11.62 22.6533 9.14222 25.7022 9.14222C27.2267 9.14222 28.7489 9.71333 29.7022 10.8556C31.0356 10.6644 32.1778 10.0933 33.1311 9.52222C32.7511 10.8556 31.7978 11.8089 30.6556 12.5689C31.7978 12.3778 32.7511 12.1889 33.8933 11.6156C33.1267 12.7622 32.1756 13.7133 31.2222 14.4756Z" fill="white"/>
</svg>
