<svg width="72" height="58" viewBox="0 0 72 58" fill="none" xmlns="http://www.w3.org/2000/svg">
<path d="M71.3846 6.84335C68.7123 8.02845 66.0285 8.92308 63.0541 9.22516C66.0285 7.4359 68.4103 4.46154 69.5954 1.1851C66.621 2.97436 63.6466 4.15946 60.3818 4.76362C57.4075 1.78926 53.5385 0 49.379 0C41.3389 0 34.7977 6.54127 34.7977 14.5697C34.7977 15.7664 34.7977 16.9515 35.0998 17.8462C22.9002 17.2536 12.1995 11.5954 5.05409 2.67228C3.56691 4.76362 2.97436 7.4359 2.97436 10.1082C2.97436 15.1739 5.64664 19.6354 9.51563 22.3077C7.13382 22.0056 4.76362 21.4131 2.97436 20.5184C2.97436 20.5184 2.97436 20.5184 2.97436 20.8205C2.97436 27.9543 8.02845 33.903 14.5697 35.0998C13.3846 35.3902 12.1995 35.6923 10.7123 35.6923C9.81771 35.6923 8.92308 35.6923 8.02845 35.3902C9.81771 41.3389 15.1739 45.51 21.7151 45.51C16.6611 49.379 10.4103 51.7492 3.56691 51.7492C2.38181 51.7492 1.1851 51.7492 0 51.4587C6.54127 55.6182 14.2792 58 22.3077 58C49.379 58 63.9487 35.6923 63.9487 16.359C63.9487 15.7664 63.9487 15.1739 63.9487 14.5697C66.9231 12.49 69.3049 9.81771 71.3846 6.84335Z" fill="white"/>
</svg>
